<svg xmlns="http://www.w3.org/2000/svg" viewBox="420 150 500 500">
<g fill="white">
	<path d="M721.45,332.64c-42.79-27.46-88.71-36.39-137.11-31.98c-48.81,4.44-91.11,23.48-123.93,61.06
		c-0.35-0.33-0.78-0.54-0.78-0.77c-0.37-21.12-1.97-42.35,3.55-63.1c12.9-48.46,43.67-80.04,90.99-95.79
		c13.89-4.63,28.23-6.3,42.82-5.61c2.35,0.11,4.88,0.99,6.94,2.18c41.77,24.12,73.83,58.04,98.96,98.81
		c5.93,9.62,10.99,19.77,16.4,29.71C719.97,328.39,720.35,329.8,721.45,332.64z"/>
	<path d="M881.59,443.24c9.59,84.04-32.51,146.75-108.5,163.39c-9.94,2.18-20.5,2.01-30.77,1.96c-3.41-0.02-6.99-2.77-10.17-4.79
		c-36.67-23.32-67.2-52.88-90-90.04c-7.04-11.47-13.18-23.5-19.69-35.3c-0.75-1.37-1.19-2.91-2.19-5.41
		c42.46,27.33,88.1,37.38,136.72,32.76C806.1,501.16,848.15,481.23,881.59,443.24z"/>
	<path d="M698.9,485.07c18.42-7.53,33.62-19.65,47.17-33.75c34.6-36,60.23-77.16,69.16-127.06c7.43-41.53,1.82-80.92-22.03-116.71
		c-0.63-0.94-1.09-2-1.93-3.56c1.45,0.21,2.4,0.19,3.24,0.5c52.32,18.93,87.64,69.07,87.76,124.69c0.07,31.15-0.05,62.31,0.08,93.46
		c0.02,3.51-1.02,5.94-3.64,8.19c-19.51,16.85-41.67,29.18-65.54,38.55c-34.51,13.55-70.06,21.04-107.36,17.76
		c-2.26-0.2-4.51-0.51-6.76-0.78C699.01,485.94,698.96,485.5,698.9,485.07z"/>
	<path d="M550.31,601.88c-13.84-4.21-25.48-10.5-36.13-18.49c-34.49-25.89-53.2-60.51-54.5-103.64
		c-0.98-32.63-0.43-65.31-0.24-97.96c0.01-2.46,2.14-5.52,4.17-7.25c20.49-17.47,43.67-30.38,68.95-39.47
		c31.61-11.37,64.06-17.92,97.86-15.95c3.9,0.23,7.78,0.71,13.01,1.2c-6.73,3.72-12.33,6.47-17.59,9.77
		c-26.18,16.45-46.05,39.08-62.94,64.62c-18.98,28.69-32.63,59.54-37.32,93.86c-5.27,38.59,1.02,74.96,21.86,108.33
		C548.28,598.25,549.03,599.64,550.31,601.88z"/>
	<path d="M756.36,411.2c-0.55-45.35-15.15-86.11-36.88-124.54c-21.85-38.66-50.93-70.19-92.05-89.91c1.68-0.09,3.36-0.26,5.04-0.26
		c40.13-0.04,80.26-0.19,120.39,0.02c7.43,0.04,14.92,1.2,22.25,2.55c2.23,0.41,4.92,2.8,5.87,4.96
		c19.75,44.68,21.05,90.56,8.28,137.23c-6.46,23.6-16.13,45.78-29.49,66.32c-0.64,0.98-1.27,1.95-1.96,2.89
		C757.64,410.68,757.26,410.75,756.36,411.2z"/>
	<path d="M714.14,608.58c-1.77,0.08-3.54,0.23-5.31,0.23c-39.98,0.06-79.95,0.22-119.93,0.05c-7.28-0.03-14.54-1.46-21.82-2.17
		c-3.39-0.33-5.19-2.24-6.54-5.26c-9.11-20.29-13.98-41.63-15.45-63.72c-3.44-51.76,11.37-98.69,38.3-142.3
		c0.33-0.54,0.8-1,1.58-1.95c0.4,1.11,0.85,1.77,0.85,2.42c-0.36,34.09,9.84,65.69,23.06,96.48c13.75,32.03,32.39,60.8,58.53,84.27
		c12.84,11.52,26.98,21.15,42.58,28.57c1.47,0.7,2.92,1.46,4.38,2.19C714.3,607.79,714.22,608.18,714.14,608.58z"/>
</g>
</svg>
