<?xml version="1.0" encoding="utf-8"?>
<!-- Generator: Adobe Illustrator 25.4.1, SVG Export Plug-In . SVG Version: 6.00 Build 0)  -->
<svg version="1.1" id="Слой_1" xmlns="http://www.w3.org/2000/svg" xmlns:xlink="http://www.w3.org/1999/xlink" x="0px" y="0px"
	 viewBox="0 0 1613.34 841.89" style="enable-background:new 0 0 1613.34 841.89;" xml:space="preserve">
<path d="M1256.44,361.79c-2.23,4.34-4.41,8.72-6.7,13.03c-21.3,40.17-42.57,80.34-63.94,120.47c-8.22,15.43-21.79,21.89-38.68,22
	c-17.14,0.1-30.92-6.54-39.23-22.01c-22.77-42.4-45.27-84.93-67.88-127.41c-0.96-1.81-1.91-3.63-2.86-5.45
	c-0.42,0.1-0.84,0.2-1.25,0.3c0,2.57,0,5.15,0,7.72c0.05,57.32,0.16,114.64,0.11,171.97c-0.02,20.61-11.82,36.41-31.53,40.74
	c-18.89,4.14-36.17,0.8-49.19-15.15c-6.03-7.38-8.84-15.92-8.85-25.43c-0.06-50.32-0.16-100.65-0.2-150.97
	c-0.03-38.49,0.82-77.01-0.22-115.47c-0.9-33.31,21.07-52.09,49.99-53.42c17.05-0.79,33.64,0.84,48.26,10.99
	c6.97,4.84,12.41,10.99,16.5,18.44c27.69,50.53,55.42,101.02,83.15,151.53c0.71,1.3,1.51,2.55,2.67,4.52
	c1.07-1.57,1.94-2.65,2.59-3.85c28.06-51.07,56.08-102.18,84.18-153.23c7.2-13.08,18.41-21.29,32.62-25.39
	c14.21-4.1,28.73-4.19,43.04-1.15c23.91,5.08,38.17,22.9,38.34,47.46c0.21,31.16,0.1,62.32,0.09,93.48
	c-0.02,58.49-0.08,116.98-0.1,175.46c0,15.04-5.74,27.15-18.04,36c-19.42,13.96-61.03,11.11-70.02-22.43
	c-1.32-4.91-1.66-10.2-1.67-15.32c-0.1-57.32-0.04-114.64-0.03-171.97c0-1.73,0-3.46,0-5.2
	C1257.2,361.96,1256.82,361.87,1256.44,361.79z"/>
<path d="M264.46,351.22c12.56-20.29,24.69-40,36.93-59.62c9.7-15.54,19.84-30.8,29.26-46.5c10.85-18.09,27.25-24.35,47.1-22.36
	c7.39,0.74,15.27,2.98,21.6,6.75c19.49,11.61,24.6,34.43,12.31,53.75c-15.55,24.45-31.65,48.55-47.59,72.75
	c-17.04,25.87-34.25,51.63-51.17,77.57c-1.69,2.59-2.63,6.14-2.65,9.25c-0.18,32.66,0,65.32-0.12,97.98
	c-0.08,21.47-14.97,39.3-35.42,42.93c-23.61,4.18-45.18-6.54-52.88-26.82c-1.85-4.86-2.73-10.37-2.78-15.59
	c-0.29-31.66-0.31-63.32-0.14-94.98c0.03-5.6-1.39-10.19-4.47-14.85c-32.31-48.9-64.6-97.83-96.57-146.96
	c-13.13-20.17-8.16-42.63,11.54-55.25c9.82-6.29,20.81-7.62,32.17-6.78c15.71,1.15,27.5,8.32,35.89,21.96
	c21.11,34.32,42.66,68.37,64.05,102.53C262.3,348.22,263.19,349.39,264.46,351.22z"/>
<path d="M1413.21,402.71c0-46-0.07-92,0.02-138c0.04-21.72,14.22-38.05,35.67-41.54c8.7-1.42,17.33-1.06,25.65,1.86
	c15.61,5.48,24.41,16.79,26.94,32.98c0.66,4.25,0.69,8.64,0.69,12.96c0.01,89.83,0,179.66-0.07,269.49
	c-0.02,21.91-12,38.29-32.55,42.71c-32.93,7.09-56.68-14.64-56.45-42.98C1413.5,494.38,1413.22,448.54,1413.21,402.71z"/>
<path d="M721.45,332.64c-42.79-27.46-88.71-36.39-137.11-31.98c-48.81,4.44-91.11,23.48-123.93,61.06
	c-0.35-0.33-0.78-0.54-0.78-0.77c-0.37-21.12-1.97-42.35,3.55-63.1c12.9-48.46,43.67-80.04,90.99-95.79
	c13.89-4.63,28.23-6.3,42.82-5.61c2.35,0.11,4.88,0.99,6.94,2.18c41.77,24.12,73.83,58.04,98.96,98.81
	c5.93,9.62,10.99,19.77,16.4,29.71C719.97,328.39,720.35,329.8,721.45,332.64z"/>
<path d="M881.59,443.24c9.59,84.04-32.51,146.75-108.5,163.39c-9.94,2.18-20.5,2.01-30.77,1.96c-3.41-0.02-6.99-2.77-10.17-4.79
	c-36.67-23.32-67.2-52.88-90-90.04c-7.04-11.47-13.18-23.5-19.69-35.3c-0.75-1.37-1.19-2.91-2.19-5.41
	c42.46,27.33,88.1,37.38,136.72,32.76C806.1,501.16,848.15,481.23,881.59,443.24z"/>
<path d="M698.9,485.07c18.42-7.53,33.62-19.65,47.17-33.75c34.6-36,60.23-77.16,69.16-127.06c7.43-41.53,1.82-80.92-22.03-116.71
	c-0.63-0.94-1.09-2-1.93-3.56c1.45,0.21,2.4,0.19,3.24,0.5c52.32,18.93,87.64,69.07,87.76,124.69c0.07,31.15-0.05,62.31,0.08,93.46
	c0.02,3.51-1.02,5.94-3.64,8.19c-19.51,16.85-41.67,29.18-65.54,38.55c-34.51,13.55-70.06,21.04-107.36,17.76
	c-2.26-0.2-4.51-0.51-6.76-0.78C699.01,485.94,698.96,485.5,698.9,485.07z"/>
<path d="M550.31,601.88c-13.84-4.21-25.48-10.5-36.13-18.49c-34.49-25.89-53.2-60.51-54.5-103.64c-0.98-32.63-0.43-65.31-0.24-97.96
	c0.01-2.46,2.14-5.52,4.17-7.25c20.49-17.47,43.67-30.38,68.95-39.47c31.61-11.37,64.06-17.92,97.86-15.95
	c3.9,0.23,7.78,0.71,13.01,1.2c-6.73,3.72-12.33,6.47-17.59,9.77c-26.18,16.45-46.05,39.08-62.94,64.62
	c-18.98,28.69-32.63,59.54-37.32,93.86c-5.27,38.59,1.02,74.96,21.86,108.33C548.28,598.25,549.03,599.64,550.31,601.88z"/>
<path d="M756.36,411.2c-0.55-45.35-15.15-86.11-36.88-124.54c-21.85-38.66-50.93-70.19-92.05-89.91c1.68-0.09,3.36-0.26,5.04-0.26
	c40.13-0.04,80.26-0.19,120.39,0.02c7.43,0.04,14.92,1.2,22.25,2.55c2.23,0.41,4.92,2.8,5.87,4.96
	c19.75,44.68,21.05,90.56,8.28,137.23c-6.46,23.6-16.13,45.78-29.49,66.32c-0.64,0.98-1.27,1.95-1.96,2.89
	C757.64,410.68,757.26,410.75,756.36,411.2z"/>
<path d="M714.14,608.58c-1.77,0.08-3.54,0.23-5.31,0.23c-39.98,0.06-79.95,0.22-119.93,0.05c-7.28-0.03-14.54-1.46-21.82-2.17
	c-3.39-0.33-5.19-2.24-6.54-5.26c-9.11-20.29-13.98-41.63-15.45-63.72c-3.44-51.76,11.37-98.69,38.3-142.3
	c0.33-0.54,0.8-1,1.58-1.95c0.4,1.11,0.85,1.77,0.85,2.42c-0.36,34.09,9.84,65.69,23.06,96.48c13.75,32.03,32.39,60.8,58.53,84.27
	c12.84,11.52,26.98,21.15,42.58,28.57c1.47,0.7,2.92,1.46,4.38,2.19C714.3,607.79,714.22,608.18,714.14,608.58z"/>
</svg>
